testWalking_coordinates.mot
nRows=5
nColumns=42

name testWalking_coordinates.mot
datacolumns 42
datarows 5
range 0.0000000000 0.0333333351
endheader
time	pelvis_tx	pelvis_ty	pelvis_tz	pelvis_list	pelvis_rotation	pelvis_tilt	hip_flexion_r	hip_adduction_r	hip_rotation_r	knee_angle_r	ankle_angle_r	subtalar_angle_r	mtp_angle_r	hip_flexion_l	hip_adduction_l	hip_rotation_l	knee_angle_l	ankle_angle_l	subtalar_angle_l	mtp_angle_l	lumbar_extension	lumbar_bending	lumbar_rotation	ground_force_vx	ground_force_vy	ground_force_vz	ground_force_px	ground_force_py	ground_force_pz	ground_force_vx	ground_force_vy	ground_force_vz	ground_force_px	ground_force_py	ground_force_pz	ground_torque_x	ground_torque_y	ground_torque_z	ground_torque_x	ground_torque_y	ground_torque_z
        0.0000000000	        0.0000000000	        0.0000000000	        0.0000000000	        0.0000000000	        0.0000000000	        0.0000000000	        0.0000000000	        0.0000000000	        0.0000000000	        0.0000000000	        0.0000000000	        0.0000000000	        0.0000000000	        0.0000000000	        0.0000000000	        0.0000000000	        0.0000000000	        0.0000000000	        0.0000000000	        0.0000000000	        0.0000000000	        0.0000000000	        0.0000000000	        0.0000000000	       -0.0000000000	       -0.0000000000	        0.0762562081	        0.0000000000	       -0.1868414730	     -136.2752685547	      801.3739624023	       26.3996467590	        0.2931195796	        0.0000000000	       -0.0466390438	        0.0000000000	       -0.0000000000	       -0.0000000000	        0.0000000000	       -0.2010667175	       -0.0000000000	
        0.0083333338	        0.0000000000	        0.0000000000	        0.0000000000	        0.0000000000	        0.0000000000	        0.0000000000	        0.0000000000	        0.0000000000	        0.0000000000	        0.0000000000	        0.0000000000	        0.0000000000	        0.0000000000	        0.0000000000	        0.0000000000	        0.0000000000	        0.0000000000	        0.0000000000	        0.0000000000	        0.0000000000	        0.0000000000	        0.0000000000	        0.0000000000	        0.0000000000	       -0.0000000000	       -0.0000000000	        0.0762562081	        0.0000000000	       -0.1868414730	     -130.5404205322	      800.5769653320	       25.2644176483	        0.2963276207	        0.0000000000	       -0.0471395329	        0.0000000000	       -0.0000000000	       -0.0000000000	        0.0000000000	       -0.5430631638	       -0.0000000000	
        0.0166666675	        0.0000000000	        0.0000000000	        0.0000000000	        0.0000000000	        0.0000000000	        0.0000000000	        0.0000000000	        0.0000000000	        0.0000000000	        0.0000000000	        0.0000000000	        0.0000000000	        0.0000000000	        0.0000000000	        0.0000000000	        0.0000000000	        0.0000000000	        0.0000000000	        0.0000000000	        0.0000000000	        0.0000000000	        0.0000000000	        0.0000000000	        0.0000000000	       -0.0000000000	       -0.0000000000	        0.0762562081	        0.0000000000	       -0.1868414730	     -125.8543472290	      801.4625244141	       28.8927001953	        0.2995677590	        0.0000000000	       -0.0479728580	        0.0000000000	       -0.0000000000	       -0.0000000000	        0.0000000000	       -0.4542233944	       -0.0000000000	
        0.0250000004	        0.0000000000	        0.0000000000	        0.0000000000	        0.0000000000	        0.0000000000	        0.0000000000	        0.0000000000	        0.0000000000	        0.0000000000	        0.0000000000	        0.0000000000	        0.0000000000	        0.0000000000	        0.0000000000	        0.0000000000	        0.0000000000	        0.0000000000	        0.0000000000	        0.0000000000	        0.0000000000	        0.0000000000	        0.0000000000	        0.0000000000	        0.0000000000	       -0.0000000000	       -0.0000000000	        0.0762562081	        0.0000000000	       -0.1868414730	     -118.5797882080	      801.1082763672	       32.0535354614	        0.3030299246	        0.0000000000	       -0.0485947207	        0.0000000000	       -0.0000000000	       -0.0000000000	        0.0000000000	       -0.6113982797	       -0.0000000000	
        0.0333333351	        0.0000000000	        0.0000000000	        0.0000000000	        0.0000000000	        0.0000000000	        0.0000000000	        0.0000000000	        0.0000000000	        0.0000000000	        0.0000000000	        0.0000000000	        0.0000000000	        0.0000000000	        0.0000000000	        0.0000000000	        0.0000000000	        0.0000000000	        0.0000000000	        0.0000000000	        0.0000000000	        0.0000000000	        0.0000000000	        0.0000000000	        0.0000000000	       -0.0000000000	       -0.0000000000	        0.0762562081	        0.0000000000	       -0.1868414730	     -110.3903274536	      792.4295043945	       32.4319458008	        0.3060368896	        0.0000000000	       -0.0499500632	        0.0000000000	       -0.0000000000	       -0.0000000000	        0.0000000000	       -0.4760492444	       -0.0000000000	
